<?xml version="1.0" encoding="UTF-8" standalone="no"?>
<!-- Created with Digital by H.Neemann -->
<!-- created: Thu Aug 08 12:55:29 GET 2019 -->

<svg
   xmlns:svg="http://www.w3.org/2000/svg"
   xmlns="http://www.w3.org/2000/svg"
   width="136.5mm"
   height="62.1mm"
   viewBox="55 23 910 414">
<g stroke-linecap="square">
<path d="M 360,240 L 420,240 L 420,80 L 440,80" stroke="#000000" stroke-width="2.8" fill="none"/>
<path d="M 260,240 L 300,240" stroke="#000000" stroke-width="2.8" fill="none"/>
<path d="M 780,240 L 820,240" stroke="#000000" stroke-width="2.8" fill="none"/>
<path d="M 880,240 L 900,240" stroke="#000000" stroke-width="2.8" fill="none"/>
<path d="M 520,400 L 560,400" stroke="#000000" stroke-width="2.8" fill="none"/>
<path d="M 620,400 L 680,400 L 680,260 L 700,260" stroke="#000000" stroke-width="2.8" fill="none"/>
<path d="M 120,420 L 160,420 L 440,420" stroke="#000000" stroke-width="2.8" fill="none"/>
<path d="M 160,420 L 160,260 L 180,260" stroke="#000000" stroke-width="2.8" fill="none"/>
<path d="M 120,40 L 160,40 L 440,40" stroke="#000000" stroke-width="2.8" fill="none"/>
<path d="M 420,240 L 420,380 L 440,380" stroke="#000000" stroke-width="2.8" fill="none"/>
<path d="M 160,40 L 160,220 L 180,220" stroke="#000000" stroke-width="2.8" fill="none"/>
<path d="M 520,60 L 560,60" stroke="#000000" stroke-width="2.8" fill="none"/>
<path d="M 620,60 L 680,60 L 680,220 L 700,220" stroke="#000000" stroke-width="2.8" fill="none"/>
<g>
<circle cx="420.0" cy="240.0" r="4.0" stroke="#000000" stroke-width="2.8" fill="#000000" />
<circle cx="160.0" cy="420.0" r="4.0" stroke="#000000" stroke-width="2.8" fill="#000000" />
<circle cx="160.0" cy="40.0" r="4.0" stroke="#000000" stroke-width="2.8" fill="#000000" />
</g>
<g>
<circle cx="916.0" cy="240.0" r="9.0" stroke="#000000" stroke-width="2.8" fill="none" />
<circle cx="916.0" cy="240.0" r="15.0" stroke="#000000" stroke-width="2.8" fill="none" />
<text text-anchor="start" x="945.0" y="249.0" fill="#000000" style="font-size:24">S</text>
<circle cx="900.0" cy="240.0" r="2.0" stroke="#000000" stroke-width="2.8" fill="#000000" />
</g>
<g>
<path d="M 230,270 L 181,270 L 181,210 L 230,210 C 240,210 260,220 259,240 C 259,260 240,270 230,270 Z" stroke="#000000" stroke-width="2.8" fill="none"/>
<circle cx="180.0" cy="220.0" r="2.0" stroke="#000000" stroke-width="2.8" fill="#000000" />
<circle cx="180.0" cy="260.0" r="2.0" stroke="#000000" stroke-width="2.8" fill="#000000" />
<circle cx="260.0" cy="240.0" r="2.0" stroke="#000000" stroke-width="2.8" fill="#000000" />
</g>
<g>
<path d="M 490,90 L 441,90 L 441,30 L 490,30 C 500,30 520,40 519,60 C 519,80 500,90 490,90 Z" stroke="#000000" stroke-width="2.8" fill="none"/>
<circle cx="440.0" cy="40.0" r="2.0" stroke="#000000" stroke-width="2.8" fill="#000000" />
<circle cx="440.0" cy="80.0" r="2.0" stroke="#000000" stroke-width="2.8" fill="#000000" />
<circle cx="520.0" cy="60.0" r="2.0" stroke="#000000" stroke-width="2.8" fill="#000000" />
</g>
<g>
<path d="M 490,430 L 441,430 L 441,370 L 490,370 C 500,370 520,380 519,400 C 519,420 500,430 490,430 Z" stroke="#000000" stroke-width="2.8" fill="none"/>
<circle cx="440.0" cy="380.0" r="2.0" stroke="#000000" stroke-width="2.8" fill="#000000" />
<circle cx="440.0" cy="420.0" r="2.0" stroke="#000000" stroke-width="2.8" fill="#000000" />
<circle cx="520.0" cy="400.0" r="2.0" stroke="#000000" stroke-width="2.8" fill="#000000" />
</g>
<g>
<path d="M 750,270 L 701,270 L 701,210 L 750,210 C 760,210 780,220 779,240 C 779,260 760,270 750,270 Z" stroke="#000000" stroke-width="2.8" fill="none"/>
<circle cx="700.0" cy="220.0" r="2.0" stroke="#000000" stroke-width="2.8" fill="#000000" />
<circle cx="700.0" cy="260.0" r="2.0" stroke="#000000" stroke-width="2.8" fill="#000000" />
<circle cx="780.0" cy="240.0" r="2.0" stroke="#000000" stroke-width="2.8" fill="#000000" />
</g>
<g>
<path d="M 301,218 L 339,240 L 301,262 Z" stroke="#000000" stroke-width="2.8" fill="none"/>
<circle cx="350.0" cy="240.0" r="9.0" stroke="#000000" stroke-width="2.8" fill="none" />
<circle cx="300.0" cy="240.0" r="2.0" stroke="#000000" stroke-width="2.8" fill="#000000" />
<circle cx="360.0" cy="240.0" r="2.0" stroke="#000000" stroke-width="2.8" fill="#000000" />
</g>
<g>
<path d="M 561,38 L 599,60 L 561,82 Z" stroke="#000000" stroke-width="2.8" fill="none"/>
<circle cx="610.0" cy="60.0" r="9.0" stroke="#000000" stroke-width="2.8" fill="none" />
<circle cx="560.0" cy="60.0" r="2.0" stroke="#000000" stroke-width="2.8" fill="#000000" />
<circle cx="620.0" cy="60.0" r="2.0" stroke="#000000" stroke-width="2.8" fill="#000000" />
</g>
<g>
<path d="M 561,378 L 599,400 L 561,422 Z" stroke="#000000" stroke-width="2.8" fill="none"/>
<circle cx="610.0" cy="400.0" r="9.0" stroke="#000000" stroke-width="2.8" fill="none" />
<circle cx="560.0" cy="400.0" r="2.0" stroke="#000000" stroke-width="2.8" fill="#000000" />
<circle cx="620.0" cy="400.0" r="2.0" stroke="#000000" stroke-width="2.8" fill="#000000" />
</g>
<g>
<path d="M 821,218 L 859,240 L 821,262 Z" stroke="#000000" stroke-width="2.8" fill="none"/>
<circle cx="870.0" cy="240.0" r="9.0" stroke="#000000" stroke-width="2.8" fill="none" />
<circle cx="820.0" cy="240.0" r="2.0" stroke="#000000" stroke-width="2.8" fill="#000000" />
<circle cx="880.0" cy="240.0" r="2.0" stroke="#000000" stroke-width="2.8" fill="#000000" />
</g>
<g>
<path d="M 89,25 L 119,25 L 119,55 L 89,55 Z" stroke="#000000" stroke-width="2.8" fill="none"/>
<circle cx="104.0" cy="40.0" r="9.0" stroke="#000000" stroke-width="2.8" fill="none" />
<text text-anchor="end" x="75.0" y="49.0" fill="#000000" style="font-size:24">A</text>
<circle cx="120.0" cy="40.0" r="2.0" stroke="#000000" stroke-width="2.8" fill="#000000" />
</g>
<g>
<path d="M 89,405 L 119,405 L 119,435 L 89,435 Z" stroke="#000000" stroke-width="2.8" fill="none"/>
<circle cx="104.0" cy="420.0" r="9.0" stroke="#000000" stroke-width="2.8" fill="none" />
<text text-anchor="end" x="75.0" y="429.0" fill="#000000" style="font-size:24">B</text>
<circle cx="120.0" cy="420.0" r="2.0" stroke="#000000" stroke-width="2.8" fill="#000000" />
</g>
</g>
</svg>