<?xml version="1.0" encoding="UTF-8" standalone="no"?>
<!-- Created with Digital by H.Neemann -->
<!-- created: Wed Aug 07 22:08:32 GET 2019 -->

<svg
   xmlns:svg="http://www.w3.org/2000/svg"
   xmlns="http://www.w3.org/2000/svg"
   width="105.75mm"
   height="26.1mm"
   viewBox="7 43 705 174">
<g stroke-linecap="square">
<path d="M 400,80 L 380,80 L 340,200 L 100,200" stroke="#0000b2" stroke-width="2.8" fill="none"/>
<path d="M 280,80 L 340,80 L 380,200 L 500,200 L 504,200" stroke="#0000b2" stroke-width="2.8" fill="none"/>
<path d="M 460,80 L 480,80 L 480,160 L 500,160 L 504,160" stroke="#0000b2" stroke-width="2.8" fill="none"/>
<path d="M 580,180 L 640,180" stroke="#0000b2" stroke-width="2.8" fill="none"/>
<path d="M 100,120 L 120,120 L 120,80 L 220,80" stroke="#0000b2" stroke-width="2.8" fill="none"/>
<path d="M 100,60 L 220,60" stroke="#0000b2" stroke-width="2.8" fill="none"/>
<path d="M 280,60 L 400,60" stroke="#0000b2" stroke-width="2.8" fill="none"/>
<path d="M 460,60 L 640,60" stroke="#0000b2" stroke-width="2.8" fill="none"/>
<g>
</g>
<g>
<path d="M 221,50 L 279,50 L 279,90 L 221,90 Z" stroke="#ffffb4" stroke-width="0.0" fill="#ffffb4" fill-opacity="0.7843137254901961"/>
<path d="M 221,50 L 279,50 L 279,90 L 221,90 Z" stroke="#000000" stroke-width="2.8" fill="none"/>
<text text-anchor="start" x="224.0" y="66.75" fill="#808080" style="font-size:18">A</text>
<text text-anchor="start" x="224.0" y="86.75" fill="#808080" style="font-size:18">B</text>
<text text-anchor="end" x="276.0" y="66.75" fill="#808080" style="font-size:18">S</text>
<text text-anchor="end" x="276.0" y="86.75" fill="#808080" style="font-size:18">R</text>
<text text-anchor="middle" x="250.0" y="107.5" fill="#808080" style="font-size:18">halfAdder</text>
<circle cx="220.0" cy="60.0" r="2.0" stroke="#0000b2" stroke-width="2.8" fill="#0000b2" />
<circle cx="220.0" cy="80.0" r="2.0" stroke="#0000b2" stroke-width="2.8" fill="#0000b2" />
<circle cx="280.0" cy="60.0" r="2.0" stroke="#b20000" stroke-width="2.8" fill="#b20000" />
<circle cx="280.0" cy="80.0" r="2.0" stroke="#b20000" stroke-width="2.8" fill="#b20000" />
</g>
<g>
<path d="M 401,50 L 459,50 L 459,90 L 401,90 Z" stroke="#ffffb4" stroke-width="0.0" fill="#ffffb4" fill-opacity="0.7843137254901961"/>
<path d="M 401,50 L 459,50 L 459,90 L 401,90 Z" stroke="#000000" stroke-width="2.8" fill="none"/>
<text text-anchor="start" x="404.0" y="66.75" fill="#808080" style="font-size:18">A</text>
<text text-anchor="start" x="404.0" y="86.75" fill="#808080" style="font-size:18">B</text>
<text text-anchor="end" x="456.0" y="66.75" fill="#808080" style="font-size:18">S</text>
<text text-anchor="end" x="456.0" y="86.75" fill="#808080" style="font-size:18">R</text>
<text text-anchor="middle" x="430.0" y="107.5" fill="#808080" style="font-size:18">halfAdder</text>
<circle cx="400.0" cy="60.0" r="2.0" stroke="#0000b2" stroke-width="2.8" fill="#0000b2" />
<circle cx="400.0" cy="80.0" r="2.0" stroke="#0000b2" stroke-width="2.8" fill="#0000b2" />
<circle cx="460.0" cy="60.0" r="2.0" stroke="#b20000" stroke-width="2.8" fill="#b20000" />
<circle cx="460.0" cy="80.0" r="2.0" stroke="#b20000" stroke-width="2.8" fill="#b20000" />
</g>
<g>
<path d="M 69,45 L 99,45 L 99,75 L 69,75 Z" stroke="#000000" stroke-width="2.8" fill="none"/>
<circle cx="84.0" cy="60.0" r="9.0" stroke="#000000" stroke-width="2.8" fill="none" />
<text text-anchor="end" x="55.0" y="69.0" fill="#000000" style="font-size:24"><tspan style="font-style:italic">Ai</tspan></text>
<circle cx="100.0" cy="60.0" r="2.0" stroke="#b20000" stroke-width="2.8" fill="#b20000" />
</g>
<g>
<path d="M 69,105 L 99,105 L 99,135 L 69,135 Z" stroke="#000000" stroke-width="2.8" fill="none"/>
<circle cx="84.0" cy="120.0" r="9.0" stroke="#000000" stroke-width="2.8" fill="none" />
<text text-anchor="end" x="55.0" y="129.0" fill="#000000" style="font-size:24"><tspan style="font-style:italic">Bi</tspan></text>
<circle cx="100.0" cy="120.0" r="2.0" stroke="#b20000" stroke-width="2.8" fill="#b20000" />
</g>
<g>
<path d="M 69,185 L 99,185 L 99,215 L 69,215 Z" stroke="#000000" stroke-width="2.8" fill="none"/>
<circle cx="84.0" cy="200.0" r="9.0" stroke="#000000" stroke-width="2.8" fill="none" />
<text text-anchor="end" x="55.0" y="209.0" fill="#000000" style="font-size:24"><tspan style="font-style:italic">Ri-1</tspan></text>
<circle cx="100.0" cy="200.0" r="2.0" stroke="#b20000" stroke-width="2.8" fill="#b20000" />
</g>
<g>
<path d="M 530,210 L 500,210 C 510,194 510,166 500,150 L 520,150 C 550,150 570,160 580,180 C 570,200 550,210 530,210 Z" stroke="#000000" stroke-width="2.8" fill="none"/>
<circle cx="500.0" cy="160.0" r="2.0" stroke="#0000b2" stroke-width="2.8" fill="#0000b2" />
<circle cx="500.0" cy="200.0" r="2.0" stroke="#0000b2" stroke-width="2.8" fill="#0000b2" />
<circle cx="580.0" cy="180.0" r="2.0" stroke="#b20000" stroke-width="2.8" fill="#b20000" />
</g>
<g>
<circle cx="656.0" cy="60.0" r="9.0" stroke="#000000" stroke-width="2.8" fill="none" />
<circle cx="656.0" cy="60.0" r="15.0" stroke="#000000" stroke-width="2.8" fill="none" />
<text text-anchor="start" x="685.0" y="69.0" fill="#000000" style="font-size:24"><tspan style="font-style:italic">Si</tspan></text>
<circle cx="640.0" cy="60.0" r="2.0" stroke="#0000b2" stroke-width="2.8" fill="#0000b2" />
</g>
<g>
<circle cx="656.0" cy="180.0" r="9.0" stroke="#000000" stroke-width="2.8" fill="none" />
<circle cx="656.0" cy="180.0" r="15.0" stroke="#000000" stroke-width="2.8" fill="none" />
<text text-anchor="start" x="685.0" y="189.0" fill="#000000" style="font-size:24"><tspan style="font-style:italic">Ri</tspan></text>
<circle cx="640.0" cy="180.0" r="2.0" stroke="#0000b2" stroke-width="2.8" fill="#0000b2" />
</g>
</g>
</svg>