<?xml version="1.0" encoding="UTF-8" standalone="no"?>
<!-- Created with Digital by H.Neemann -->
<!-- created: Thu Aug 08 10:56:18 GET 2019 -->

<svg
   xmlns:svg="http://www.w3.org/2000/svg"
   xmlns="http://www.w3.org/2000/svg"
   width="81.15mm"
   height="62.1mm"
   viewBox="364 3 541 414">
<g stroke-linecap="square">
<path d="M 480,400 L 700,400 L 700,160" stroke="#0000b2" stroke-width="2.8" fill="none"/>
<path d="M 480,20 L 660,20 L 660,80 L 680,80" stroke="#0000b2" stroke-width="2.8" fill="none"/>
<path d="M 480,100 L 620,100 L 620,120 L 680,120" stroke="#0000b2" stroke-width="2.8" fill="none"/>
<path d="M 720,120 L 840,120" stroke="#0000b2" stroke-width="2.8" fill="none"/>
<path d="M 480,60 L 640,60 L 640,100 L 680,100" stroke="#0000b2" stroke-width="2.8" fill="none"/>
<path d="M 480,140 L 680,140" stroke="#0000b2" stroke-width="2.8" fill="none"/>
<g>
</g>
<g>
<path d="M 681,76 L 719,85 L 719,155 L 681,164 Z" stroke="#000000" stroke-width="2.8" fill="none"/>
<text text-anchor="start" x="683.0" y="95.5" fill="#808080" style="font-size:18">0</text>
<circle cx="700.0" cy="160.0" r="2.0" stroke="#0000b2" stroke-width="2.8" fill="#0000b2" />
<circle cx="680.0" cy="80.0" r="2.0" stroke="#0000b2" stroke-width="2.8" fill="#0000b2" />
<circle cx="680.0" cy="100.0" r="2.0" stroke="#0000b2" stroke-width="2.8" fill="#0000b2" />
<circle cx="680.0" cy="120.0" r="2.0" stroke="#0000b2" stroke-width="2.8" fill="#0000b2" />
<circle cx="680.0" cy="140.0" r="2.0" stroke="#0000b2" stroke-width="2.8" fill="#0000b2" />
<circle cx="720.0" cy="120.0" r="2.0" stroke="#b20000" stroke-width="2.8" fill="#b20000" />
</g>
<g>
<path d="M 449,5 L 479,5 L 479,35 L 449,35 Z" stroke="#000000" stroke-width="2.8" fill="none"/>
<circle cx="464.0" cy="20.0" r="9.0" stroke="#000000" stroke-width="2.8" fill="none" />
<text text-anchor="end" x="435.0" y="29.0" fill="#000000" style="font-size:24"><tspan style="font-style:italic">A0</tspan></text>
<circle cx="480.0" cy="20.0" r="2.0" stroke="#b20000" stroke-width="2.8" fill="#b20000" />
</g>
<g>
<path d="M 449,45 L 479,45 L 479,75 L 449,75 Z" stroke="#000000" stroke-width="2.8" fill="none"/>
<circle cx="464.0" cy="60.0" r="9.0" stroke="#000000" stroke-width="2.8" fill="none" />
<text text-anchor="end" x="435.0" y="69.0" fill="#000000" style="font-size:24"><tspan style="font-style:italic">A1</tspan></text>
<circle cx="480.0" cy="60.0" r="2.0" stroke="#b20000" stroke-width="2.8" fill="#b20000" />
</g>
<g>
<path d="M 449,85 L 479,85 L 479,115 L 449,115 Z" stroke="#000000" stroke-width="2.8" fill="none"/>
<circle cx="464.0" cy="100.0" r="9.0" stroke="#000000" stroke-width="2.8" fill="none" />
<text text-anchor="end" x="435.0" y="109.0" fill="#000000" style="font-size:24"><tspan style="font-style:italic">A2</tspan></text>
<circle cx="480.0" cy="100.0" r="2.0" stroke="#b20000" stroke-width="2.8" fill="#b20000" />
</g>
<g>
<path d="M 449,125 L 479,125 L 479,155 L 449,155 Z" stroke="#000000" stroke-width="2.8" fill="none"/>
<circle cx="464.0" cy="140.0" r="9.0" stroke="#000000" stroke-width="2.8" fill="none" />
<text text-anchor="end" x="435.0" y="149.0" fill="#000000" style="font-size:24"><tspan style="font-style:italic">A3</tspan></text>
<circle cx="480.0" cy="140.0" r="2.0" stroke="#b20000" stroke-width="2.8" fill="#b20000" />
</g>
<g>
<circle cx="856.0" cy="120.0" r="9.0" stroke="#000000" stroke-width="2.8" fill="none" />
<circle cx="856.0" cy="120.0" r="15.0" stroke="#000000" stroke-width="2.8" fill="none" />
<text text-anchor="start" x="885.0" y="129.0" fill="#000000" style="font-size:24"><tspan style="font-style:italic">S</tspan></text>
<circle cx="840.0" cy="120.0" r="2.0" stroke="#0000b2" stroke-width="2.8" fill="#0000b2" />
</g>
<g>
<path d="M 449,385 L 479,385 L 479,415 L 449,415 Z" stroke="#000000" stroke-width="2.8" fill="none"/>
<circle cx="464.0" cy="400.0" r="9.0" stroke="#000000" stroke-width="2.8" fill="none" />
<text text-anchor="end" x="435.0" y="409.0" fill="#000000" style="font-size:24"><tspan style="font-style:italic">Select</tspan></text>
<circle cx="480.0" cy="400.0" r="2.0" stroke="#b20000" stroke-width="2.8" fill="#b20000" />
</g>
</g>
</svg>