<?xml version="1.0" encoding="UTF-8" standalone="no"?>
<!-- Created with Digital by H.Neemann -->
<!-- created: Thu Aug 08 10:56:04 GET 2019 -->

<svg
   xmlns:svg="http://www.w3.org/2000/svg"
   xmlns="http://www.w3.org/2000/svg"
   width="89.1mm"
   height="71.85mm"
   viewBox="31 43 594 479">
<g stroke-linecap="square">
<path d="M 160,320 L 340,320" stroke="#0000b2" stroke-width="2.8" fill="none"/>
<path d="M 160,480 L 340,480" stroke="#0000b2" stroke-width="2.8" fill="none"/>
<path d="M 280,180 L 280,200 L 340,200" stroke="#0000b2" stroke-width="2.8" fill="none"/>
<path d="M 280,200 L 280,360 L 340,360" stroke="#0000b2" stroke-width="2.8" fill="none"/>
<path d="M 220,220 L 220,300 L 340,300" stroke="#0000b2" stroke-width="2.8" fill="none"/>
<path d="M 400,300 L 420,300 L 420,320 L 460,320 L 464,320" stroke="#0000b2" stroke-width="2.8" fill="none"/>
<path d="M 200,520 L 200,460 L 340,460" stroke="#0000b2" stroke-width="2.8" fill="none"/>
<path d="M 400,460 L 440,460 L 440,380 L 460,380" stroke="#0000b2" stroke-width="2.8" fill="none"/>
<path d="M 160,240 L 340,240" stroke="#0000b2" stroke-width="2.8" fill="none"/>
<path d="M 160,400 L 340,400" stroke="#0000b2" stroke-width="2.8" fill="none"/>
<path d="M 520,340 L 560,340" stroke="#0000b2" stroke-width="2.8" fill="none"/>
<path d="M 160,120 L 200,120 L 220,120 L 220,140" stroke="#0000b2" stroke-width="2.8" fill="none"/>
<path d="M 220,180 L 220,220 L 340,220" stroke="#0000b2" stroke-width="2.8" fill="none"/>
<path d="M 400,220 L 440,220 L 440,300 L 460,300" stroke="#0000b2" stroke-width="2.8" fill="none"/>
<path d="M 200,120 L 200,380 L 340,380" stroke="#0000b2" stroke-width="2.8" fill="none"/>
<path d="M 400,380 L 420,380 L 420,360 L 460,360 L 464,360" stroke="#0000b2" stroke-width="2.8" fill="none"/>
<path d="M 160,60 L 260,60 L 260,120 L 280,120 L 280,140" stroke="#0000b2" stroke-width="2.8" fill="none"/>
<path d="M 340,280 L 260,280 L 260,440 L 340,440" stroke="#0000b2" stroke-width="2.8" fill="none"/>
<path d="M 260,440 L 260,520" stroke="#0000b2" stroke-width="2.8" fill="none"/>
<path d="M 260,120 L 260,280" stroke="#0000b2" stroke-width="2.8" fill="none"/>
<path d="M 200,380 L 200,460" stroke="#0000b2" stroke-width="2.8" fill="none"/>
<path d="M 280,360 L 280,520" stroke="#0000b2" stroke-width="2.8" fill="none"/>
<path d="M 220,300 L 220,520" stroke="#0000b2" stroke-width="2.8" fill="none"/>
<path d="M 461,300 L 461,309" stroke="#000000" stroke-width="2.8" fill="none"/>
<path d="M 461,380 L 461,371" stroke="#000000" stroke-width="2.8" fill="none"/>
<g>
<circle cx="280.0" cy="200.0" r="4.0" stroke="#0000b2" stroke-width="2.8" fill="#0000b2" />
<circle cx="280.0" cy="360.0" r="4.0" stroke="#0000b2" stroke-width="2.8" fill="#0000b2" />
<circle cx="220.0" cy="300.0" r="4.0" stroke="#0000b2" stroke-width="2.8" fill="#0000b2" />
<circle cx="200.0" cy="460.0" r="4.0" stroke="#0000b2" stroke-width="2.8" fill="#0000b2" />
<circle cx="200.0" cy="120.0" r="4.0" stroke="#0000b2" stroke-width="2.8" fill="#0000b2" />
<circle cx="260.0" cy="120.0" r="4.0" stroke="#0000b2" stroke-width="2.8" fill="#0000b2" />
<circle cx="260.0" cy="280.0" r="4.0" stroke="#0000b2" stroke-width="2.8" fill="#0000b2" />
<circle cx="260.0" cy="440.0" r="4.0" stroke="#0000b2" stroke-width="2.8" fill="#0000b2" />
<circle cx="220.0" cy="220.0" r="4.0" stroke="#0000b2" stroke-width="2.8" fill="#0000b2" />
<circle cx="200.0" cy="380.0" r="4.0" stroke="#0000b2" stroke-width="2.8" fill="#0000b2" />
</g>
<g>
<path d="M 129,45 L 159,45 L 159,75 L 129,75 Z" stroke="#000000" stroke-width="2.8" fill="none"/>
<circle cx="144.0" cy="60.0" r="9.0" stroke="#000000" stroke-width="2.8" fill="none" />
<text text-anchor="end" x="115.0" y="69.0" fill="#000000" style="font-size:24"><tspan style="font-style:italic">Select<tspan style="font-size:80%;baseline-shift:sub">0</tspan></tspan></text>
<circle cx="160.0" cy="60.0" r="2.0" stroke="#b20000" stroke-width="2.8" fill="#b20000" />
</g>
<g>
<path d="M 129,105 L 159,105 L 159,135 L 129,135 Z" stroke="#000000" stroke-width="2.8" fill="none"/>
<circle cx="144.0" cy="120.0" r="9.0" stroke="#000000" stroke-width="2.8" fill="none" />
<text text-anchor="end" x="115.0" y="129.0" fill="#000000" style="font-size:24"><tspan style="font-style:italic">Select<tspan style="font-size:80%;baseline-shift:sub">1</tspan></tspan></text>
<circle cx="160.0" cy="120.0" r="2.0" stroke="#b20000" stroke-width="2.8" fill="#b20000" />
</g>
<g>
<path d="M 232,141 L 220,159 L 208,141 Z" stroke="#000000" stroke-width="2.8" fill="none"/>
<circle cx="220.0" cy="170.0" r="9.0" stroke="#000000" stroke-width="2.8" fill="none" />
<circle cx="220.0" cy="140.0" r="2.0" stroke="#0000b2" stroke-width="2.8" fill="#0000b2" />
<circle cx="220.0" cy="180.0" r="2.0" stroke="#b20000" stroke-width="2.8" fill="#b20000" />
</g>
<g>
<path d="M 292,141 L 280,159 L 268,141 Z" stroke="#000000" stroke-width="2.8" fill="none"/>
<circle cx="280.0" cy="170.0" r="9.0" stroke="#000000" stroke-width="2.8" fill="none" />
<circle cx="280.0" cy="140.0" r="2.0" stroke="#0000b2" stroke-width="2.8" fill="#0000b2" />
<circle cx="280.0" cy="180.0" r="2.0" stroke="#b20000" stroke-width="2.8" fill="#b20000" />
</g>
<g>
<path d="M 370,250 L 341,250 L 341,190 L 370,190 C 380,190 400,200 399,220 C 399,240 380,250 370,250 Z" stroke="#000000" stroke-width="2.8" fill="none"/>
<circle cx="340.0" cy="200.0" r="2.0" stroke="#0000b2" stroke-width="2.8" fill="#0000b2" />
<circle cx="340.0" cy="220.0" r="2.0" stroke="#0000b2" stroke-width="2.8" fill="#0000b2" />
<circle cx="340.0" cy="240.0" r="2.0" stroke="#0000b2" stroke-width="2.8" fill="#0000b2" />
<circle cx="400.0" cy="220.0" r="2.0" stroke="#b20000" stroke-width="2.8" fill="#b20000" />
</g>
<g>
<path d="M 129,225 L 159,225 L 159,255 L 129,255 Z" stroke="#000000" stroke-width="2.8" fill="none"/>
<circle cx="144.0" cy="240.0" r="9.0" stroke="#000000" stroke-width="2.8" fill="none" />
<text text-anchor="end" x="115.0" y="249.0" fill="#000000" style="font-size:24"><tspan style="font-style:italic">A<tspan style="font-size:80%;baseline-shift:sub">0</tspan></tspan></text>
<circle cx="160.0" cy="240.0" r="2.0" stroke="#b20000" stroke-width="2.8" fill="#b20000" />
</g>
<g>
<path d="M 370,330 L 341,330 L 341,270 L 370,270 C 380,270 400,280 399,300 C 399,320 380,330 370,330 Z" stroke="#000000" stroke-width="2.8" fill="none"/>
<circle cx="340.0" cy="280.0" r="2.0" stroke="#0000b2" stroke-width="2.8" fill="#0000b2" />
<circle cx="340.0" cy="300.0" r="2.0" stroke="#0000b2" stroke-width="2.8" fill="#0000b2" />
<circle cx="340.0" cy="320.0" r="2.0" stroke="#0000b2" stroke-width="2.8" fill="#0000b2" />
<circle cx="400.0" cy="300.0" r="2.0" stroke="#b20000" stroke-width="2.8" fill="#b20000" />
</g>
<g>
<path d="M 129,305 L 159,305 L 159,335 L 129,335 Z" stroke="#000000" stroke-width="2.8" fill="none"/>
<circle cx="144.0" cy="320.0" r="9.0" stroke="#000000" stroke-width="2.8" fill="none" />
<text text-anchor="end" x="115.0" y="329.0" fill="#000000" style="font-size:24"><tspan style="font-style:italic">A<tspan style="font-size:80%;baseline-shift:sub">1</tspan></tspan></text>
<circle cx="160.0" cy="320.0" r="2.0" stroke="#b20000" stroke-width="2.8" fill="#b20000" />
</g>
<g>
<path d="M 370,410 L 341,410 L 341,350 L 370,350 C 380,350 400,360 399,380 C 399,400 380,410 370,410 Z" stroke="#000000" stroke-width="2.8" fill="none"/>
<circle cx="340.0" cy="360.0" r="2.0" stroke="#0000b2" stroke-width="2.8" fill="#0000b2" />
<circle cx="340.0" cy="380.0" r="2.0" stroke="#0000b2" stroke-width="2.8" fill="#0000b2" />
<circle cx="340.0" cy="400.0" r="2.0" stroke="#0000b2" stroke-width="2.8" fill="#0000b2" />
<circle cx="400.0" cy="380.0" r="2.0" stroke="#b20000" stroke-width="2.8" fill="#b20000" />
</g>
<g>
<path d="M 129,385 L 159,385 L 159,415 L 129,415 Z" stroke="#000000" stroke-width="2.8" fill="none"/>
<circle cx="144.0" cy="400.0" r="9.0" stroke="#000000" stroke-width="2.8" fill="none" />
<text text-anchor="end" x="115.0" y="409.0" fill="#000000" style="font-size:24"><tspan style="font-style:italic">A<tspan style="font-size:80%;baseline-shift:sub">2</tspan></tspan></text>
<circle cx="160.0" cy="400.0" r="2.0" stroke="#b20000" stroke-width="2.8" fill="#b20000" />
</g>
<g>
<path d="M 370,490 L 341,490 L 341,430 L 370,430 C 380,430 400,440 399,460 C 399,480 380,490 370,490 Z" stroke="#000000" stroke-width="2.8" fill="none"/>
<circle cx="340.0" cy="440.0" r="2.0" stroke="#0000b2" stroke-width="2.8" fill="#0000b2" />
<circle cx="340.0" cy="460.0" r="2.0" stroke="#0000b2" stroke-width="2.8" fill="#0000b2" />
<circle cx="340.0" cy="480.0" r="2.0" stroke="#0000b2" stroke-width="2.8" fill="#0000b2" />
<circle cx="400.0" cy="460.0" r="2.0" stroke="#b20000" stroke-width="2.8" fill="#b20000" />
</g>
<g>
<path d="M 129,465 L 159,465 L 159,495 L 129,495 Z" stroke="#000000" stroke-width="2.8" fill="none"/>
<circle cx="144.0" cy="480.0" r="9.0" stroke="#000000" stroke-width="2.8" fill="none" />
<text text-anchor="end" x="115.0" y="489.0" fill="#000000" style="font-size:24"><tspan style="font-style:italic">A<tspan style="font-size:80%;baseline-shift:sub">3</tspan></tspan></text>
<circle cx="160.0" cy="480.0" r="2.0" stroke="#b20000" stroke-width="2.8" fill="#b20000" />
</g>
<g>
<path d="M 470,370 L 460,370 C 470,360 470,320 460,310 L 470,310 C 480,310 500,320 520,340 C 500,360 480,370 470,370 Z" stroke="#000000" stroke-width="2.8" fill="none"/>
<circle cx="460.0" cy="300.0" r="2.0" stroke="#0000b2" stroke-width="2.8" fill="#0000b2" />
<circle cx="460.0" cy="320.0" r="2.0" stroke="#0000b2" stroke-width="2.8" fill="#0000b2" />
<circle cx="460.0" cy="360.0" r="2.0" stroke="#0000b2" stroke-width="2.8" fill="#0000b2" />
<circle cx="460.0" cy="380.0" r="2.0" stroke="#0000b2" stroke-width="2.8" fill="#0000b2" />
<circle cx="520.0" cy="340.0" r="2.0" stroke="#b20000" stroke-width="2.8" fill="#b20000" />
</g>
<g>
<circle cx="576.0" cy="340.0" r="9.0" stroke="#000000" stroke-width="2.8" fill="none" />
<circle cx="576.0" cy="340.0" r="15.0" stroke="#000000" stroke-width="2.8" fill="none" />
<text text-anchor="start" x="605.0" y="349.0" fill="#000000" style="font-size:24"><tspan style="font-style:italic">S</tspan></text>
<circle cx="560.0" cy="340.0" r="2.0" stroke="#0000b2" stroke-width="2.8" fill="#0000b2" />
</g>
<g>
<path d="M 490,50 L 570,50 L 570,90 L 490,90 Z" stroke="#b4ffb4" stroke-width="0.0" fill="#b4ffb4" fill-opacity="0.7843137254901961"/>
<path d="M 490,50 L 570,50 L 570,90 L 490,90 Z" stroke="#000000" stroke-width="1.4" fill="none"/>
<text text-anchor="middle" x="530.0" y="79.0" fill="#000000" style="font-size:24">Test</text>
</g>
</g>
</svg>